<svg width="200" height="80" viewBox="0 0 200 80" xmlns="http://www.w3.org/2000/svg">
  <!-- Background circle -->
  <circle cx="40" cy="40" r="35" fill="#4CAF50" stroke="#2E7D32" stroke-width="2"/>
  
  <!-- Letter D with leaf design -->
  <path d="M20 20 Q20 15 25 15 L35 15 Q50 15 50 30 L50 50 Q50 65 35 65 L25 65 Q20 65 20 60 Z" fill="white"/>
  <path d="M25 25 L25 55 L32 55 Q40 55 40 40 Q40 25 32 25 Z" fill="#4CAF50"/>
  
  <!-- Leaf elements -->
  <path d="M45 25 Q50 20 55 25 Q50 30 45 25" fill="#81C784"/>
  <path d="M45 35 Q50 30 55 35 Q50 40 45 35" fill="#81C784"/>
  
  <!-- Company name -->
  <text x="80" y="35" font-family="Arial, sans-serif" font-size="24" font-weight="bold" fill="#2E7D32">DEROWN</text>
  <text x="80" y="55" font-family="Arial, sans-serif" font-size="12" fill="#666">Built to Perform</text>
</svg>